<?xml version="1.0" encoding="UTF-8"?>
<!DOCTYPE svg  PUBLIC '-//W3C//DTD SVG 1.1//EN'  'http://www.w3.org/Graphics/SVG/1.1/DTD/svg11.dtd'>
<svg width="800px" height="800px" fill="#284B63" version="1.1" viewBox="-47.11 -47.11 565.33 565.33" xml:space="preserve" xmlns="http://www.w3.org/2000/svg">
<g stroke-width="0">
  <rect x="-47.11" y="-47.11" width="565.33" height="565.33" rx="0" fill="#153243" strokewidth="0"/>
</g>
<path d="m467.33 321.02-101.31-40.423c3.239-11.12 4.983-22.87 4.983-35.022 0-69.144-56.252-125.4-125.4-125.4-16.448 0-32.164 3.189-46.569 8.972l-37.449-93.737c0.514-0.421 1.01-0.87 1.487-1.346 3.77-3.769 5.846-8.78 5.846-14.11s-2.076-10.342-5.845-14.111c-3.77-3.769-8.78-5.845-14.11-5.845s-10.342 2.076-14.11 5.845c-3.77 3.769-5.846 8.781-5.846 14.111s2.076 10.341 5.846 14.11c3.769 3.769 8.78 5.845 14.11 5.845 0.494 0 0.981-0.036 1.468-0.072l37.68 94.316c-23.068 11.951-41.973 30.857-53.925 53.925l-94.353-37.643c0.035-0.486 0.071-0.972 0.071-1.465 0-5.33-2.076-10.341-5.845-14.11h-1e-3c-3.769-3.769-8.779-5.845-14.11-5.845-5.33 0-10.342 2.076-14.109 5.845-3.77 3.769-5.846 8.78-5.846 14.11s2.076 10.342 5.845 14.111c3.77 3.769 8.78 5.845 14.11 5.845 5.331 0 10.342-2.076 14.11-5.845 0.478-0.478 0.927-0.976 1.35-1.492l93.773 37.413c-5.783 14.406-8.972 30.121-8.972 46.57 0 69.144 56.252 125.4 125.4 125.4 12.136 0 23.872-1.739 34.979-4.971l40.431 101.33c0.938 2.349 3.192 3.778 5.575 3.778 0.74 0 1.492-0.138 2.222-0.429 3.078-1.228 4.577-4.718 3.35-7.796l-40.215-100.79c31.916-12.739 57.41-38.226 70.159-70.136l100.78 40.209c0.729 0.291 1.481 0.429 2.222 0.429 2.383 0 4.638-1.43 5.575-3.778 1.226-3.078-0.273-6.569-3.351-7.797zm-326.32-301.06c0-2.125 0.828-4.123 2.33-5.625 1.503-1.502 3.501-2.33 5.626-2.33s4.122 0.828 5.625 2.33c1.502 1.502 2.33 3.5 2.33 5.625s-0.828 4.123-2.331 5.625c-1.502 1.502-3.499 2.33-5.624 2.33s-4.123-0.827-5.626-2.33c-1.502-1.502-2.33-3.5-2.33-5.625zm-115.44 134.64c-1.502 1.502-3.499 2.33-5.625 2.33-2.125 0-4.122-0.828-5.625-2.33-1.502-1.502-2.33-3.5-2.33-5.625s0.828-4.123 2.331-5.625c1.502-1.502 3.5-2.33 5.624-2.33 2.125 0 4.123 0.827 5.625 2.33h1e-3c1.502 1.502 2.33 3.5 2.33 5.625s-0.828 4.122-2.331 5.625zm278.32 188.2-155.48-155.59c2.776-4.605 5.87-8.996 9.251-13.146l134.19 134.19c0.578 1.141 1.507 2.07 2.647 2.647l22.604 22.604c-4.169 3.397-8.582 6.504-13.211 9.29zm-28.698 12.241-139.06-139.06c1.653-6.107 3.801-12.011 6.405-17.666l150.26 150.36c-5.634 2.589-11.515 4.727-17.597 6.373zm-29.596-222.86c6.667 0 13.199 0.583 19.553 1.692l-65.36 65.36-11.252-11.252 55.784-55.784c0.425-5e-3 0.849-0.016 1.275-0.016zm109.08 82.379h-72.84l17-17h49.468c2.556 5.447 4.699 11.125 6.372 17zm1.648 55.47-85.771-0.029-15.441-15.441h103.52c-0.415 5.266-1.196 10.429-2.309 15.47zm-102.49-27.47 16-16h87.549c0.885 5.223 1.42 10.563 1.562 16h-105.11zm-13.847-3.123-11.252-11.252 78.042-78.042c4.52 2.908 8.821 6.129 12.873 9.631l-79.663 79.663zm-19.737-19.736-11.983-11.983 70.563-70.563c5.928 1.821 11.649 4.119 17.122 6.844l-75.702 75.702zm-40.204-40.205-14.329-14.329c16.017-15.911 36.743-27.087 59.879-31.22l-45.55 45.549zm102.51 102.51 70.419 0.024c-2.073 6.092-4.65 11.952-7.683 17.531h-45.182l-17.554-17.555zm59.203-96.445h-30.923l17.468-17.468c5.025 5.362 9.536 11.211 13.455 17.468zm-206.1 87.864 82.083 82.084c-40.192-10.187-71.897-41.892-82.083-82.084zm102.25 85.282-105.45-105.45c-0.171-2.539-0.266-5.098-0.266-7.679 0-5.254 0.367-10.423 1.063-15.489l127.82 127.82c-5.066 0.695-10.236 1.063-15.49 1.063-2.582 0-5.142-0.095-7.68-0.266zm88.089-33.256-13.89-13.89h25.647c-3.548 4.941-7.481 9.586-11.757 13.89z"/> 
</svg>
